<?xml version="1.0" encoding="utf-8"?>
<!-- Generator: Adobe Illustrator 19.1.0, SVG Export Plug-In . SVG Version: 6.00 Build 0)  -->
<svg version="1.1" id="Layer_1" xmlns="http://www.w3.org/2000/svg" xmlns:xlink="http://www.w3.org/1999/xlink" x="0px" y="0px"
	 width="720px" height="250px" viewBox="54 272 720 250" style="enable-background:new 54 272 720 250;" xml:space="preserve">
<style type="text/css">
	.st0{fill:#9B9B9B;}
	.st1{fill:#FFFFFF;}
	.st2{fill:#9E1B32;}
	.st3{opacity:0.9;}
	.st4{fill:none;stroke:#9B9B9B;stroke-linecap:round;stroke-miterlimit:100;}
	.st5{fill:none;stroke:#FFFFFF;stroke-linecap:round;stroke-linejoin:round;stroke-miterlimit:10;}
</style>
<rect x="54" y="272" width="720" height="250"/>
<g>
	<circle cx="374.5" cy="297.5" r="8.5"/>
	<path class="st0" d="M374.5,290c4.1,0,7.5,3.4,7.5,7.5s-3.4,7.5-7.5,7.5s-7.5-3.4-7.5-7.5S370.4,290,374.5,290 M374.5,289
		c-4.7,0-8.5,3.8-8.5,8.5s3.8,8.5,8.5,8.5s8.5-3.8,8.5-8.5S379.2,289,374.5,289L374.5,289z"/>
	<polyline class="st1" points="373,295 377,297.5 373,300 	"/>
</g>
<rect x="369.8" y="323.2" class="st2" width="8" height="6.2"/>
<g>
	<circle cx="374.5" cy="314.5" r="8.5"/>
	<path class="st0" d="M374.5,307c4.1,0,7.5,3.4,7.5,7.5s-3.4,7.5-7.5,7.5s-7.5-3.4-7.5-7.5S370.4,307,374.5,307 M374.5,306
		c-4.7,0-8.5,3.8-8.5,8.5s3.8,8.5,8.5,8.5s8.5-3.8,8.5-8.5S379.2,306,374.5,306L374.5,306z"/>
	<g id="Shape_1" class="st3">
		<polygon class="st1" points="373,311.6 372,311.6 372.1,317.2 373.1,317.2 		"/>
	</g>
	<g id="Shape_1_copy" class="st3">
		<rect x="376" y="312" class="st1" width="1" height="5"/>
		<polygon class="st1" points="377,311.6 376,311.6 376.1,317.2 377.1,317.2 		"/>
	</g>
</g>
<g>
	<polygon points="369,280.5 373.4,277.4 377.9,280.6 377.9,285.2 373.7,289 369.5,285.8 	"/>
	<g id="scroll">
		<g>
			<g>
				<line class="st4" x1="369.2" y1="280.7" x2="373.4" y2="277.1"/>
				<line class="st4" x1="377.7" y1="280.6" x2="373.5" y2="277"/>
			</g>
			<g>
				<line class="st4" x1="378" y1="285.2" x2="373.8" y2="288.8"/>
				<line class="st4" x1="369.5" y1="285.3" x2="373.7" y2="288.9"/>
			</g>
		</g>
	</g>
</g>
<polyline class="st5" points="374,324 377,326.5 374,329 "/>
<g>
	<rect x="554" y="282" class="st1" width="200" height="47.8"/>
	<g>
		<path d="M599.1,299.2v-1.9h4.7c1.2,0,2-0.1,2.4-0.5s0.5-0.9,0.5-1.8v-5.2h2.4v5.4c0,1.4-0.3,2.3-0.9,2.9c-0.8,0.8-2.1,1.1-4.1,1.1
			C604.1,299.2,599.1,299.2,599.1,299.2z"/>
		<path d="M620.5,297.5h-7.2l-1.1,1.7h-2.7l6.5-9.5h2l6.5,9.5h-2.7L620.5,297.5z M614.5,295.6h4.7l-2.4-3.5L614.5,295.6z"/>
		<path d="M637.3,299.2h-6.7c-2.6,0-4.2-0.4-5.2-1.4c-0.8-0.8-1.2-1.9-1.2-3.4s0.5-2.6,1.2-3.4c1-1,2.6-1.4,5.2-1.4h6.4v1.9h-6.1
			c-1.8,0-2.8,0.1-3.4,0.6c-0.6,0.4-0.8,1.2-0.8,2.2s0.2,1.8,0.8,2.2c0.6,0.5,1.7,0.6,3.4,0.6h4v-3h2.4L637.3,299.2L637.3,299.2z"/>
		<path d="M652.2,295.4c0,1.4-0.3,2.1-1,2.7c-0.9,0.8-2.5,1.2-5.2,1.2h-0.7c-2.7,0-4.2-0.4-5.2-1.2c-0.7-0.6-1-1.4-1-2.7v-5.8h2.4
			v5.4c0,0.7,0.1,1.1,0.5,1.5c0.5,0.5,1.6,0.7,3.4,0.7h0.5c1.8,0,2.9-0.2,3.4-0.7c0.4-0.3,0.5-0.8,0.5-1.5v-5.4h2.4L652.2,295.4
			L652.2,295.4z"/>
		<path d="M663.5,297.5h-7.2l-1.1,1.7h-2.7l6.5-9.5h2l6.5,9.5h-2.7L663.5,297.5z M657.5,295.6h4.7l-2.4-3.5L657.5,295.6z"/>
		<path d="M676.9,297.6c-1-0.9-1.4-1-2.6-1h-3.5v2.7h-2.4v-9.5h8.5c1.6,0,2.6,0.3,3.3,0.9c0.6,0.6,0.9,1.4,0.9,2.5s-0.3,1.9-0.9,2.5
			c-0.5,0.4-1.1,0.7-2,0.8c0.6,0.2,1,0.5,1.6,1.1l1.9,1.7h-3L676.9,297.6z M676.7,294.6c0.9,0,1.4-0.1,1.6-0.4
			c0.2-0.2,0.3-0.6,0.3-1.1s-0.1-0.9-0.3-1.1c-0.3-0.3-0.8-0.4-1.6-0.4h-5.8v3.1h5.8V294.6z"/>
		<path d="M690.3,296.7c0.6,0.5,1.7,0.6,3.4,0.6h5.4v1.9h-5.8c-2.6,0-4.2-0.4-5.2-1.4c-0.8-0.8-1.2-1.9-1.2-3.4s0.5-2.6,1.2-3.4
			c1-1,2.6-1.4,5.2-1.4h5.8v1.9h-5.4c-1.8,0-2.8,0.1-3.4,0.6c-0.6,0.4-0.8,1.2-0.8,2.2C689.5,295.5,689.8,296.2,690.3,296.7z"/>
		<path d="M711.2,297.5H704l-1.1,1.7h-2.7l6.5-9.5h2l6.5,9.5h-2.7L711.2,297.5z M705.2,295.6h4.7l-2.4-3.5L705.2,295.6z"/>
		<path d="M724.6,297.6c-1-0.9-1.4-1-2.6-1h-3.5v2.7h-2.4v-9.5h8.5c1.6,0,2.6,0.3,3.3,0.9c0.6,0.6,0.9,1.4,0.9,2.5s-0.3,1.9-0.9,2.5
			c-0.5,0.4-1.1,0.7-2,0.8c0.6,0.2,1,0.5,1.6,1.1l1.9,1.7h-3L724.6,297.6z M724.4,294.6c0.9,0,1.4-0.1,1.6-0.4
			c0.2-0.2,0.3-0.6,0.3-1.1s-0.1-0.9-0.3-1.1c-0.3-0.3-0.8-0.4-1.6-0.4h-5.8v3.1h5.8V294.6z"/>
		<path d="M742,299.2h-11.2v-9.5H742v1.9h-8.8v1.8h5.9v1.8h-5.9v2.1h8.8V299.2z"/>
	</g>
	<g>
		<g>
			<path d="M579.7,298.5c4.8,0,7.7,0.5,9.4,2.2c1.1,1.1,1.6,2.7,1.6,4.9c0,2.3-0.6,4.2-2,5.4c-1.6,1.5-4.2,2.1-8.6,2.1h-18.3v-4.8
				h18.3c1.9,0,3.1-0.2,3.7-0.6c0.5-0.4,0.7-1,0.7-1.9s-0.1-1.5-0.6-1.9c-0.6-0.5-1.7-0.7-3.7-0.7h-18.3v-13.5H589v4.7h-21.4v4.3
				h12.1L579.7,298.5L579.7,298.5z"/>
		</g>
		<g>
			<path d="M565.5,319h3.7v3.1h-0.8v-2.5h-2.2l-0.1,1.6c0,0.3-0.1,0.5-0.2,0.6c-0.1,0.2-0.4,0.2-0.8,0.2h-0.7v-0.6h0.5
				c0.2,0,0.3,0,0.4-0.1c0.1-0.1,0.1-0.2,0.1-0.4L565.5,319z"/>
			<path d="M577.9,322.1h-3.6V319h3.6v0.6H575v0.6h1.9v0.6H575v0.7h2.8v0.6L577.9,322.1L577.9,322.1z"/>
			<path d="M582.5,319h4.1v0.6H585v2.5h-0.8v-2.5h-1.6L582.5,319L582.5,319z"/>
		</g>
	</g>
	<g>
		<path d="M602.2,306.7c0,0-3.2,0-3.2,3.2v9c0,0,0,3.2,3.2,3.2h141.1c0,0,3.2,0,3.2-3.2v-9c0,0,0-3.2-3.2-3.2H602.2z"/>
		<g>
			<path class="st1" d="M614.2,315.6c0.4,0.3,0.9,0.3,1.9,0.3h3.1v1.1H616c-1.4,0-2.4-0.2-2.9-0.8c-0.4-0.4-0.7-1.1-0.7-1.9
				s0.3-1.5,0.7-1.9c0.6-0.6,1.5-0.8,2.9-0.8h3.3v1.1h-3.1c-1,0-1.6,0.1-1.9,0.3c-0.3,0.3-0.5,0.7-0.5,1.2
				C613.8,314.9,613.9,315.4,614.2,315.6z"/>
			<path class="st1" d="M626.7,317h-6.3v-5.3h6.3v1.1h-4.9v1h3.3v1h-3.3v1.2h4.9V317z"/>
			<path class="st1" d="M629.3,315.5v1.5H628v-5.3h4.7c0.9,0,1.5,0.2,1.8,0.5s0.5,0.8,0.5,1.4s-0.2,1.1-0.5,1.4
				c-0.4,0.3-0.9,0.5-1.8,0.5H629.3L629.3,315.5z M632.5,314.5c0.5,0,0.8-0.1,0.9-0.2c0.1-0.1,0.2-0.3,0.2-0.6
				c0-0.3-0.1-0.5-0.2-0.6c-0.2-0.2-0.4-0.2-0.9-0.2h-3.2v1.7L632.5,314.5L632.5,314.5z"/>
			<path class="st1" d="M642.2,314.2c0.6,0.2,0.9,0.7,0.9,1.3c0,0.5-0.1,0.8-0.4,1.1c-0.4,0.3-0.9,0.4-1.9,0.4H636v-5.3h4.9
				c0.8,0,1.3,0.2,1.6,0.4c0.2,0.2,0.4,0.5,0.4,0.9C642.8,313.6,642.7,313.9,642.2,314.2z M640.6,313.8c0.4,0,0.6,0,0.7-0.1
				c0.1-0.1,0.1-0.2,0.1-0.4c0-0.2,0-0.3-0.1-0.4s-0.4-0.1-0.7-0.1h-3.2v1.1L640.6,313.8L640.6,313.8z M640.8,316
				c0.4,0,0.6,0,0.8-0.1c0.1-0.1,0.2-0.2,0.2-0.4s-0.1-0.4-0.2-0.4c-0.1-0.1-0.4-0.1-0.8-0.1h-3.4v1.2h3.4V316z"/>
			<path class="st1" d="M645.6,317h-1.3v-5.3h1.3v3.4l4.7-2.4v-0.9h1.3v5.3h-1.3v-3.3l-4.7,2.5V317z"/>
			<path class="st1" d="M654.6,315.6c0.4,0.3,0.9,0.3,1.9,0.3h3.1v1.1h-3.3c-1.4,0-2.4-0.2-2.9-0.8c-0.4-0.4-0.7-1.1-0.7-1.9
				s0.3-1.5,0.7-1.9c0.6-0.6,1.5-0.8,2.9-0.8h3.3v1.1h-3.1c-1,0-1.6,0.1-1.9,0.3c-0.3,0.3-0.5,0.7-0.5,1.2
				C654.1,314.9,654.3,315.4,654.6,315.6z"/>
			<path class="st1" d="M662.1,317h-1.3v-5.3h1.3v2h4.7v-2h1.3v5.3h-1.3v-2.2h-4.7V317z"/>
			<path class="st1" d="M670.9,313.7h3.4c0.6,0,1,0,1.3,0.2c0.6,0.3,0.9,0.8,0.9,1.4s-0.2,1-0.5,1.3c-0.4,0.3-1,0.4-1.8,0.4h-4.7
				v-5.3h1.3L670.9,313.7L670.9,313.7z M674.3,316c0.3,0,0.5,0,0.7-0.1s0.3-0.3,0.3-0.5c0-0.3-0.1-0.4-0.2-0.5
				c-0.2-0.1-0.4-0.1-0.8-0.1H671v1.2H674.3L674.3,316z M678.8,317h-1.3v-5.3h1.3V317z"/>
			<path class="st1" d="M681.5,317h-1.3v-5.3h1.3v3.4l4.7-2.4v-0.9h1.3v5.3h-1.3v-3.3l-4.7,2.5V317z M683.9,311.1
				c-1,0-1.7-0.4-1.8-1.3h1c0.1,0.4,0.3,0.6,0.9,0.6h0.1c0.5,0,0.8-0.2,0.9-0.6h1c-0.1,0.9-0.8,1.3-1.8,1.3H683.9z"/>
			<path class="st1" d="M695,312.8v4.3h-1.3v-5.3h7.2v5.3h-1.3v-4.3H695z"/>
			<path class="st1" d="M707.8,316.1h-4.1l-0.6,1h-1.5l3.6-5.3h1.1l3.6,5.3h-1.5L707.8,316.1z M704.5,315h2.6l-1.3-2L704.5,315z"/>
			<path class="st1" d="M712.1,313.7h1.3l2.5-2h1.8l-3.2,2.5l3.5,2.8h-1.9l-2.6-2.2h-1.4v2.2h-1.3v-5.3h1.3L712.1,313.7L712.1,313.7
				z"/>
			<path class="st1" d="M725.3,317H719v-5.3h6.3v1.1h-4.9v1h3.3v1h-3.3v1.2h4.9V317z"/>
			<path class="st1" d="M726.1,311.7h7.1v1.1h-2.9v4.3H729v-4.3h-2.9V311.7L726.1,311.7z"/>
		</g>
	</g>
</g>
<g>
	<path class="st1" d="M64,289.3v-1.4h3.6c1,0,1.5-0.1,1.9-0.4c0.3-0.3,0.4-0.7,0.4-1.4v-4h1.8v4.1c0,1.1-0.2,1.7-0.7,2.2
		c-0.6,0.6-1.6,0.9-3.1,0.9C67.9,289.3,64,289.3,64,289.3z"/>
	<path class="st1" d="M80.7,287.9h-5.5l-0.9,1.3h-2l4.9-7.3h1.5l5,7.3h-2.1L80.7,287.9z M76.1,286.5h3.6l-1.8-2.7L76.1,286.5z"/>
	<path class="st1" d="M94.2,289.3H89c-2,0-3.2-0.3-4-1c-0.6-0.6-0.9-1.5-0.9-2.6s0.3-2,0.9-2.6c0.8-0.8,2-1,4-1h5v1.5h-4.6
		c-1.4,0-2.1,0.1-2.6,0.5c-0.4,0.3-0.6,0.9-0.6,1.7c0,0.8,0.2,1.3,0.6,1.7c0.5,0.4,1.3,0.5,2.6,0.5h3v-2.3h1.8
		C94.2,285.7,94.2,289.3,94.2,289.3z"/>
	<path class="st1" d="M106.1,286.4c0,1-0.2,1.6-0.8,2.1c-0.7,0.6-1.9,0.9-3.9,0.9h-0.5c-2,0-3.2-0.3-3.9-0.9c-0.5-0.5-0.8-1-0.8-2.1
		V282H98v4.1c0,0.5,0.1,0.9,0.4,1.1c0.4,0.4,1.2,0.5,2.6,0.5h0.4c1.4,0,2.2-0.1,2.6-0.5c0.3-0.3,0.4-0.6,0.4-1.1V282h1.8
		L106.1,286.4L106.1,286.4z"/>
	<path class="st1" d="M115.2,287.9h-5.5l-0.9,1.3h-2l4.9-7.3h1.5l5,7.3h-2.1L115.2,287.9z M110.7,286.5h3.6l-1.8-2.7L110.7,286.5z"
		/>
	<path class="st1" d="M125.9,288c-0.8-0.7-1.1-0.8-2-0.8h-2.6v2h-1.8V282h6.4c1.2,0,2,0.2,2.5,0.7c0.5,0.4,0.7,1.1,0.7,1.9
		s-0.2,1.5-0.7,1.9c-0.3,0.3-0.8,0.5-1.5,0.6c0.5,0.2,0.8,0.4,1.2,0.8l1.4,1.3h-2.3L125.9,288z M125.7,285.8c0.7,0,1-0.1,1.2-0.3
		s0.3-0.5,0.3-0.9s-0.1-0.7-0.3-0.8c-0.2-0.2-0.6-0.3-1.2-0.3h-4.4v2.3L125.7,285.8L125.7,285.8z"/>
	<path class="st1" d="M136.6,289.3h-1.8V282h8.4v1.4h-6.6v1.4h4.4v1.4h-4.4L136.6,289.3L136.6,289.3z"/>
	<path class="st1" d="M143.3,285h4.3v1.2h-4.3V285z"/>
	<path class="st1" d="M151.4,287.2v2h-1.8V282h6.4c1.2,0,2,0.2,2.5,0.7c0.5,0.4,0.7,1.1,0.7,1.9s-0.2,1.5-0.7,1.9
		c-0.5,0.5-1.3,0.7-2.5,0.7C156,287.2,151.4,287.2,151.4,287.2z M155.8,285.8c0.7,0,1-0.1,1.2-0.3s0.3-0.5,0.3-0.9s-0.1-0.7-0.3-0.8
		c-0.2-0.2-0.6-0.3-1.2-0.3h-4.4v2.3L155.8,285.8L155.8,285.8z"/>
	<path class="st1" d="M167.2,287.9h-5.5l-0.9,1.3h-2l4.9-7.3h1.5l5,7.3h-2.1L167.2,287.9z M162.7,286.5h3.6l-1.8-2.7L162.7,286.5z"
		/>
	<path class="st1" d="M173.2,287.3c0.5,0.4,1.3,0.5,2.6,0.5h4.1v1.5h-4.4c-2,0-3.2-0.3-4-1c-0.6-0.6-0.9-1.5-0.9-2.6s0.3-2,0.9-2.6
		c0.8-0.8,2-1,4-1h4.4v1.5h-4.1c-1.4,0-2.1,0.1-2.6,0.5c-0.4,0.3-0.6,0.9-0.6,1.7C172.6,286.6,172.8,287,173.2,287.3z"/>
	<path class="st1" d="M190.5,289.3H182V282h8.5v1.4h-6.7v1.4h4.5v1.4h-4.5v1.6h6.7V289.3z"/>
</g>
<g>
	<path class="st1" d="M69.3,320.5c-1.1,1.2-1.7,1.5-2.9,1.5h-1.1v-1.1h1c0.8,0,1.2-0.2,1.7-0.7l0.5-0.6l-4.5-4.9h1.7l3.7,4l3.7-4
		h1.7L69.3,320.5z"/>
	<path class="st1" d="M85.8,314.7v7.3h-1.4v-6.2h-6.9v6.2h-1.4v-7.3H85.8z"/>
	<path class="st1" d="M89.6,319.8v2.2h-1.4v-7.3h6.1c1.1,0,2,0.2,2.5,0.7c0.4,0.4,0.6,1,0.6,1.8s-0.2,1.4-0.6,1.8
		c-0.5,0.5-1.4,0.7-2.5,0.7L89.6,319.8L89.6,319.8z M94.2,318.7c0.8,0,1.2-0.1,1.5-0.4c0.2-0.2,0.3-0.6,0.3-1.1s-0.1-0.9-0.3-1.1
		c-0.3-0.3-0.7-0.4-1.5-0.4h-4.6v3H94.2z"/>
	<path class="st1" d="M105.9,320.6h-6.1l-1,1.4h-1.6l4.9-7.3h1.2l5,7.3h-1.6L105.9,320.6z M100.5,319.5h4.7l-2.4-3.5L100.5,319.5z"
		/>
	<path class="st1" d="M109.9,314.7h6.3c1,0,1.8,0.2,2.3,0.6c0.3,0.3,0.5,0.7,0.5,1.3c0,0.7-0.4,1.3-1.1,1.5c0.8,0.2,1.5,0.8,1.5,1.8
		c0,0.6-0.2,1.1-0.7,1.5s-1.2,0.6-2.3,0.6h-6.5C109.9,322,109.9,314.7,109.9,314.7z M116.1,317.7c0.6,0,1,0,1.2-0.2s0.3-0.4,0.3-0.7
		c0-0.3-0.1-0.6-0.3-0.7c-0.2-0.2-0.6-0.3-1.2-0.3h-4.8v2L116.1,317.7L116.1,317.7z M116.4,320.9c0.7,0,1-0.1,1.3-0.3
		c0.2-0.2,0.3-0.5,0.3-0.8s-0.1-0.6-0.3-0.8c-0.2-0.2-0.6-0.3-1.3-0.3h-5v2.2C111.4,320.9,116.4,320.9,116.4,320.9z"/>
	<path class="st1" d="M123.1,314.7h8.3v7.3H130v-6.2h-5.7L124,320c0,0.6-0.2,1.1-0.5,1.4c-0.2,0.4-0.7,0.6-1.5,0.6h-1.4v-1h1.2
		c0.4,0,0.7-0.1,0.8-0.3c0.2-0.2,0.2-0.4,0.2-0.8L123.1,314.7z"/>
	<path class="st1" d="M137.9,319.8c-0.5,0-0.6,0-1,0.4l-2,1.8h-1.8l1.6-1.4c0.5-0.4,0.8-0.7,1.1-0.8c-0.6-0.1-1.2-0.3-1.5-0.7
		c-0.4-0.4-0.6-1-0.6-1.8s0.2-1.4,0.6-1.8c0.5-0.5,1.3-0.7,2.5-0.7h6.2v7.2h-1.4v-2.2H137.9z M141.5,318.7v-3h-4.6
		c-0.8,0-1.2,0.1-1.5,0.4c-0.2,0.2-0.3,0.6-0.3,1.1s0.1,0.9,0.3,1.1c0.3,0.3,0.7,0.4,1.5,0.4H141.5z"/>
	<path class="st1" d="M155.2,314.7v7.3h-1.3v-5l-7.3,3.8v1.2h-1.3v-7.3h1.3v4.9l7.3-3.8v-1.1H155.2z M150.2,313.7
		c-1.3,0-2.4-0.6-2.6-1.7h1c0.1,0.5,0.8,0.9,1.7,0.9h0.1c0.9,0,1.6-0.4,1.7-0.9h1c-0.2,1.1-1.3,1.7-2.6,1.7H150.2z"/>
	<path class="st1" d="M162.3,322h-1.4v-6.2H157v-1h9.2v1h-3.9V322z"/>
	<path class="st1" d="M176.4,322H168v-7.3h8.3v1h-6.9v2h4.7v1h-4.7v2.1h7L176.4,322L176.4,322z"/>
	<path class="st1" d="M188.2,317.6c0.9,0,1.5,0.1,1.9,0.3c0.8,0.4,1,1.1,1,1.8c0,0.8-0.2,1.3-0.7,1.6c-0.5,0.4-1.2,0.6-2.3,0.6H182
		v-7.3h8.5v1h-7.1v1.9h4.8V317.6z M188.2,320.9c0.7,0,1-0.1,1.3-0.3c0.2-0.2,0.3-0.5,0.3-0.8s-0.1-0.6-0.3-0.8s-0.6-0.3-1.3-0.3
		h-4.8v2.3h4.8V320.9z"/>
	<path class="st1" d="M197.4,320.5c-1.1,1.2-1.7,1.5-2.9,1.5h-1.1v-1.1h1c0.8,0,1.2-0.2,1.7-0.7l0.5-0.6l-4.5-4.9h1.7l3.7,4l3.7-4
		h1.7L197.4,320.5z"/>
	<path class="st1" d="M202.1,320.9h1.2c0.3-0.5,0.5-1.2,0.6-2l0.3-4.2h7.9v6.2h1.2v3.1H212v-2h-8.5v2h-1.3L202.1,320.9L202.1,320.9z
		 M205.3,318.9c0,0.8-0.2,1.5-0.5,2h5.9v-5.2h-5.2L205.3,318.9z"/>
	<path class="st1" d="M219.1,320.5c-1.1,1.2-1.7,1.5-2.9,1.5H215v-1.1h1c0.8,0,1.2-0.2,1.7-0.7l0.5-0.6l-4.5-4.9h1.7l3.7,4l3.7-4
		h1.7L219.1,320.5z"/>
	<path class="st1" d="M225.9,322v-7.3h1.4v6.2h4.5v-6.2h1.4v6.2h4.5v-6.2h1.4v6.2h1.1v3.1h-1.3v-2L225.9,322L225.9,322z"/>
	<path class="st1" d="M252,314.7v7.3h-1.3v-5l-7.3,3.8v1.2h-1.3v-7.3h1.3v4.9l7.3-3.8v-1.1H252z"/>
	<path class="st1" d="M266.2,322h-1.4v-5.2l-3.9,4.9h-1.2l-4-4.9v5.2h-1.3v-7.3h1.2l4.8,5.8l4.6-5.8h1.2V322L266.2,322z"/>
</g>
<g>
	<path class="st1" d="M65.6,435c0.8-0.8,2-1,4.3-1h0.6c2.3,0,3.4,0.3,4.3,1c0.6,0.6,1,1.5,1,2.7s-0.3,2.1-1,2.7c-0.8,0.8-2,1-4.3,1
		h-0.6c-2.3,0-3.4-0.3-4.3-1c-0.6-0.6-1-1.5-1-2.7S65,435.6,65.6,435z M73.7,435.8c-0.5-0.6-1.5-0.7-3.3-0.7H70
		c-1.7,0-2.7,0.1-3.3,0.7c-0.5,0.5-0.6,1.2-0.6,1.9s0.1,1.5,0.6,1.9c0.5,0.6,1.5,0.7,3.3,0.7h0.5c1.7,0,2.7-0.1,3.3-0.7
		c0.4-0.5,0.6-1.2,0.6-1.9S74.2,436.2,73.7,435.8z"/>
	<path class="st1" d="M81.8,441.3h-1.4v-6.2h-3.9v-1h9.2v1h-3.9C81.8,435.1,81.8,441.3,81.8,441.3z"/>
	<path class="st1" d="M93.6,441.3h-1.4v-6.2H90V434h3.6V441.3z"/>
	<path class="st1" d="M96.9,435c0.8-0.8,1.9-1,4.1-1s3.3,0.3,4.1,1c0.6,0.6,1,1.5,1,2.7s-0.3,2.1-1,2.7c-0.8,0.8-1.9,1-4.1,1
		s-3.3-0.3-4.1-1c-0.6-0.6-1-1.5-1-2.7S96.2,435.6,96.9,435z M104.1,435.8c-0.5-0.6-1.6-0.7-3-0.7h-0.2c-1.4,0-2.4,0.1-3,0.7
		c-0.4,0.5-0.6,1.2-0.6,1.9s0.1,1.5,0.6,1.9c0.5,0.6,1.6,0.7,3,0.7h0.2c1.4,0,2.4-0.1,3-0.7c0.4-0.5,0.6-1.2,0.6-1.9
		S104.5,436.2,104.1,435.8z"/>
	<path class="st1" d="M115.8,441.3h-8.3v-0.8l3.4-1.7c2.4-1.3,3.2-1.8,3.2-2.7c0-0.3-0.1-0.6-0.4-0.7c-0.2-0.1-0.5-0.2-0.9-0.2h-5.2
		v-1.1h5.2c1.1,0,1.6,0.1,2.1,0.4s0.7,0.8,0.7,1.4c0,1.4-0.9,2.2-3.8,3.6l-1.6,0.8h5.7L115.8,441.3L115.8,441.3z"/>
	<path class="st1" d="M130.5,439.3c0,1.8-2.6,2.2-4.8,2.2h-0.2c-2.9,0-4.8-0.5-4.8-2.2c0-1,0.7-1.7,1.9-1.9c-1-0.2-1.5-0.8-1.5-1.6
		c0-1.4,1.7-1.8,4.4-1.8h0.2c2.9,0,4.5,0.4,4.5,1.8c0,0.7-0.5,1.3-1.7,1.7C129.9,437.7,130.5,438.4,130.5,439.3z M124,437.8
		c-1.1,0.2-1.9,0.6-1.9,1.4c0,1,1.1,1.3,3.3,1.3h0.1c2.2,0,3.4-0.2,3.4-1.1c0-0.8-0.8-0.9-2.3-1.1L124,437.8z M128.7,435.9
		c0-0.7-1-0.9-3.1-0.9h-0.2c-2.2,0-3,0.1-3,0.8c0,0.6,0.6,0.8,2,1l2.5,0.3C128.2,436.9,128.7,436.4,128.7,435.9z"/>
	<path class="st1" d="M139.9,441.3h-1.4v-1.7h-6.7v-1l4.4-4.5h1.6l-4.5,4.5h5.1v-1.9h1.4v1.9h1.9v1h-1.9L139.9,441.3L139.9,441.3z"
		/>
	<path class="st1" d="M144.1,435c0.8-0.8,1.9-1,4.1-1s3.3,0.3,4.1,1c0.6,0.6,1,1.5,1,2.7s-0.3,2.1-1,2.7c-0.8,0.8-1.9,1-4.1,1
		s-3.3-0.3-4.1-1c-0.6-0.6-1-1.5-1-2.7S143.4,435.6,144.1,435z M151.3,435.8c-0.5-0.6-1.6-0.7-3-0.7h-0.2c-1.4,0-2.4,0.1-3,0.7
		c-0.4,0.5-0.6,1.2-0.6,1.9s0.1,1.5,0.6,1.9c0.5,0.6,1.6,0.7,3,0.7h0.2c1.4,0,2.4-0.1,3-0.7c0.4-0.5,0.6-1.2,0.6-1.9
		S151.7,436.2,151.3,435.8z"/>
	<path class="st1" d="M158.5,434.1h6.3c1,0,1.8,0.2,2.3,0.6c0.3,0.3,0.5,0.7,0.5,1.3c0,0.7-0.4,1.3-1.1,1.5c0.8,0.2,1.5,0.8,1.5,1.8
		c0,0.6-0.2,1.1-0.7,1.5s-1.2,0.6-2.3,0.6h-6.5V434.1z M164.7,437.1c0.6,0,1,0,1.2-0.3c0.2-0.2,0.3-0.4,0.3-0.7s-0.1-0.6-0.3-0.8
		c-0.2-0.2-0.6-0.3-1.2-0.3h-4.8v2L164.7,437.1L164.7,437.1z M164.9,440.3c0.7,0,1-0.1,1.3-0.3c0.2-0.2,0.3-0.5,0.3-0.8
		s-0.1-0.6-0.3-0.8c-0.2-0.2-0.6-0.3-1.3-0.3h-5v2.2L164.9,440.3L164.9,440.3z"/>
	<path class="st1" d="M174.2,441.3h-1.4v-2.5l-4.8-4.7h1.7l3.9,3.8l3.8-3.8h1.6l-4.8,4.7V441.3z"/>
	<path class="st1" d="M181.5,434.1l7.3,5.7v-5.7h1.3v7.3h-1.2l-7.3-5.7v5.7h-1.3v-7.3H181.5z"/>
	<path class="st1" d="M193.6,438h-0.8v-3.6h-1.3v-0.6h2.1V438z"/>
</g>
<g>
	<path class="st1" d="M74.2,463.4v1.1h-3.7c-2.2,0-3.4-0.2-4.2-0.9c-0.6-0.6-1-1.5-1-2.7s0.3-2.1,1-2.7c0.8-0.8,2-0.9,4.2-0.9h3.7
		v1.1h-3.6c-1.7,0-2.7,0.1-3.2,0.7c-0.4,0.5-0.6,1.2-0.6,1.9s0.1,1.4,0.6,1.9c0.5,0.6,1.5,0.7,3.2,0.7H74.2z"/>
	<path class="st1" d="M80.6,464.5h-1.4v-6.2h-3.9v-1h9.2v1h-3.9V464.5z"/>
	<path class="st1" d="M91.9,463.1h-6.1l-0.9,1.4h-1.6l4.9-7.3h1.2l5,7.3h-1.6L91.9,463.1z M86.5,462h4.7l-2.4-3.5L86.5,462z"/>
	<path class="st1" d="M95.7,457.2h6.3c1,0,1.8,0.2,2.3,0.6c0.3,0.3,0.5,0.7,0.5,1.3c0,0.7-0.4,1.3-1.1,1.5c0.8,0.2,1.5,0.8,1.5,1.8
		c0,0.6-0.2,1.1-0.7,1.5c-0.5,0.4-1.2,0.6-2.3,0.6h-6.5V457.2z M101.8,460.3c0.6,0,1,0,1.2-0.3c0.2-0.2,0.3-0.4,0.3-0.7
		s-0.1-0.6-0.3-0.8c-0.2-0.2-0.6-0.3-1.2-0.3h-4.8v2H101.8z M102.1,463.5c0.7,0,1-0.1,1.3-0.3c0.2-0.2,0.3-0.5,0.3-0.8
		s-0.1-0.6-0.3-0.8c-0.2-0.2-0.6-0.3-1.3-0.3h-5v2.2H102.1z"/>
	<path class="st1" d="M108.3,464.5h-1.4v-7.3h1.4v2.9h2.4l3.7-2.9h1.7l-4.4,3.5l4.6,3.8h-1.9l-4-3.3h-2.2V464.5z"/>
	<path class="st1" d="M125.6,463.1h-6.1l-0.9,1.4h-1.6l4.9-7.3h1.2l5,7.3h-1.6L125.6,463.1z M120.1,462h4.7l-2.4-3.5L120.1,462z"/>
	<path class="st1" d="M75.3,471.2v7.3H74v-6.2h-6.9v6.2h-1.4v-7.3H75.3z"/>
	<path class="st1" d="M78.1,472.2c0.8-0.8,2-1,4.3-1H83c2.3,0,3.4,0.3,4.3,1c0.6,0.6,1,1.5,1,2.7s-0.3,2.1-1,2.7c-0.8,0.8-2,1-4.3,1
		h-0.6c-2.3,0-3.4-0.3-4.3-1c-0.6-0.6-1-1.5-1-2.7S77.4,472.8,78.1,472.2z M86.2,473c-0.5-0.6-1.5-0.7-3.3-0.7h-0.5
		c-1.7,0-2.7,0.1-3.3,0.7c-0.5,0.5-0.6,1.2-0.6,1.9s0.1,1.5,0.6,1.9c0.5,0.6,1.5,0.7,3.3,0.7h0.5c1.7,0,2.7-0.1,3.3-0.7
		c0.4-0.5,0.6-1.2,0.6-1.9S86.6,473.4,86.2,473z"/>
	<path class="st1" d="M95.1,471.2h8.3v7.3h-1.4v-6.2h-5.7l-0.3,4.2c0,0.6-0.2,1.1-0.5,1.4c-0.3,0.4-0.8,0.6-1.7,0.6h-1.4v-1h1.2
		c0.4,0,0.7-0.1,0.8-0.3c0.1-0.2,0.2-0.4,0.2-0.8L95.1,471.2z"/>
	<path class="st1" d="M115.6,471.2v7.3h-1.3v-4.9l-7.3,3.8v1.1h-1.3v-7.3h1.3v4.9l7.3-3.8v-1.1H115.6z"/>
	<path class="st1" d="M123,474.3c0.6,0,1,0,1.2-0.3c0.2-0.2,0.3-0.4,0.3-0.7s-0.1-0.6-0.3-0.8c-0.2-0.2-0.6-0.3-1.2-0.3h-5.6v-1h5.8
		c1,0,1.8,0.2,2.3,0.6c0.3,0.3,0.5,0.7,0.5,1.3c0,0.6-0.4,1.3-1.1,1.5c0.8,0.2,1.3,0.8,1.3,1.7c0,0.6-0.2,1.2-0.7,1.5
		c-0.5,0.4-1.2,0.6-2.3,0.6h-5.8v-1h5.7c0.7,0,1-0.1,1.3-0.3c0.2-0.2,0.3-0.5,0.3-0.8s-0.1-0.6-0.3-0.8c-0.2-0.2-0.6-0.3-1.3-0.3
		h-4.2v-1H123z"/>
	<path class="st1" d="M137.8,471.2v7.3h-1.3v-4.9l-7.3,3.8v1.1h-1.3v-7.3h1.3v4.9l7.3-3.8v-1.1H137.8z"/>
	<path class="st1" d="M149.7,478.5h-1.4v-3.3h-6.9v3.3H140v-7.3h1.4v2.9h6.9v-2.9h1.4V478.5z"/>
	<path class="st1" d="M151.9,471.2h8.5v1h-7.1v6.2h-1.4V471.2z"/>
	<path class="st1" d="M166.3,477c-1.1,1.2-1.7,1.5-2.9,1.5h-1.1v-1.1h1c0.8,0,1.2-0.2,1.7-0.7l0.5-0.6l-4.5-4.9h1.7l3.7,4l3.7-4h1.7
		L166.3,477z"/>
	<path class="st1" d="M176,475.7h8.8v1H176V475.7z"/>
	<path class="st1" d="M193,478.5h-1.4v-6.2h-2.2v-1.1h3.6V478.5z"/>
	<path class="st1" d="M198.7,478.5h-1.4v-6.2h-2.2v-1.1h3.6V478.5z"/>
	<path class="st1" d="M201.7,477c0.4,0,0.8,0.2,0.8,0.7v0c0,0.5-0.3,0.7-0.8,0.7h-0.1c-0.4,0-0.8-0.2-0.8-0.7v0
		c0-0.5,0.3-0.7,0.8-0.7H201.7z"/>
	<path class="st1" d="M204.2,478.5v-1.1h4.8c1.9,0,2.3-0.4,2.3-1.2c0-0.9-0.3-1.1-2-1.1h-5.1v-3.9h8.1v1.1h-6.9v1.8h4.1
		c1.1,0,1.8,0.1,2.3,0.4c0.6,0.3,0.8,1,0.8,1.8c0,1.7-1.3,2.2-3.2,2.2H204.2z"/>
	<path class="st1" d="M216.8,471.1c1.3,0,2.4,0.5,2.4,1.8c0,1.4-1.1,1.8-2.4,1.8h-0.5c-1.4,0-2.4-0.5-2.4-1.8c0-1.4,1-1.8,2.4-1.8
		H216.8z M216.7,474c0.8,0,1.5-0.2,1.5-1c0-0.8-0.6-1-1.5-1h-0.2c-0.9,0-1.5,0.2-1.5,1c0,0.8,0.6,1,1.5,1H216.7z M217.2,478.6h-1.4
		l7.2-7.5h1.4L217.2,478.6z M223.9,474.9c1.3,0,2.4,0.5,2.4,1.8c0,1.4-1.1,1.8-2.4,1.8h-0.5c-1.4,0-2.4-0.5-2.4-1.8
		c0-1.4,1-1.8,2.4-1.8H223.9z M223.8,477.8c0.8,0,1.5-0.2,1.5-1c0-0.8-0.6-1-1.5-1h-0.2c-0.9,0-1.5,0.2-1.5,1c0,0.8,0.6,1,1.5,1
		H223.8z"/>
	<path class="st1" d="M232,475.2h-4.8v-0.5l2-1c1.4-0.7,1.9-1.1,1.9-1.6c0-0.2-0.1-0.3-0.2-0.4c-0.1-0.1-0.3-0.1-0.5-0.1h-3v-0.6h3
		c0.6,0,0.9,0.1,1.2,0.2c0.3,0.2,0.4,0.5,0.4,0.8c0,0.8-0.5,1.3-2.2,2.1l-1,0.5h3.3V475.2z"/>
</g>
</svg>
